<?xml version="1.0" encoding="UTF-8" standalone="no"?>
<svg
   width="48.44352pt"
   height="27.195101pt"
   version="1.1"
   viewBox="0 0 48.44352 27.195101"
   id="svg156"
   sodipodi:docname="arrow.svg"
   inkscape:version="1.2.2 (1:1.2.2+202212051550+b0a8486541)"
   xmlns:inkscape="http://www.inkscape.org/namespaces/inkscape"
   xmlns:sodipodi="http://sodipodi.sourceforge.net/DTD/sodipodi-0.dtd"
   xmlns="http://www.w3.org/2000/svg"
   xmlns:svg="http://www.w3.org/2000/svg">
  <sodipodi:namedview
     id="namedview158"
     pagecolor="#ffffff"
     bordercolor="#666666"
     borderopacity="1.0"
     inkscape:showpageshadow="2"
     inkscape:pageopacity="0.0"
     inkscape:pagecheckerboard="0"
     inkscape:deskcolor="#d1d1d1"
     inkscape:document-units="pt"
     showgrid="false"
     inkscape:zoom="0.715188"
     inkscape:cx="-92.982544"
     inkscape:cy="97.876362"
     inkscape:window-width="1920"
     inkscape:window-height="1009"
     inkscape:window-x="0"
     inkscape:window-y="34"
     inkscape:window-maximized="1"
     inkscape:current-layer="g154" />
  <defs
     id="defs68">
    <symbol
       id="v"
       overflow="visible">
      <path
         d="M 3.5,-0.20312 C 3.32031,-0.10937 3.13281,-0.03906 2.9375,0 2.73828,0.050781 2.53516,0.078125 2.32812,0.078125 c -0.63672,0 -1.1406,-0.17578 -1.5156,-0.53125 -0.36719,-0.35156 -0.54688,-0.83594 -0.54688,-1.4531 0,-0.60156 0.17969,-1.082 0.54688,-1.4375 0.375,-0.36328 0.87891,-0.54688 1.5156,-0.54688 0.20703,0 0.41016,0.027344 0.60938,0.078125 0.19531,0.054688 0.38281,0.125 0.5625,0.21875 v 0.78125 C 3.32031,-2.93748 3.14453,-3.02342 2.96875,-3.0781 2.78906,-3.1406 2.60156,-3.17185 2.40625,-3.17185 c -0.35547,0 -0.63281,0.11719 -0.82812,0.34375 -0.19922,0.21875 -0.29688,0.52734 -0.29688,0.92188 0,0.39844 0.097656,0.71094 0.29688,0.9375 0.19531,0.21875 0.47266,0.32812 0.82812,0.32812 0.19531,0 0.38281,-0.023437 0.5625,-0.078125 0.17578,-0.0625 0.35156,-0.15625 0.53125,-0.28125 z"
         id="path2" />
    </symbol>
    <symbol
       id="d"
       overflow="visible">
      <path
         d="M 2.5625,-2.0781 C 2.488281,-2.117163 2.41016,-2.144506 2.32812,-2.156225 2.242183,-2.175756 2.16406,-2.187475 2.09374,-2.187475 c -0.24219,0 -0.42188,0.078125 -0.54688,0.23438 -0.125,0.14844 -0.1875,0.35938 -0.1875,0.64062 V 2.5e-5 H 0.43748 v -2.8594 h 0.92188 v 0.46875 c 0.11328,-0.1875 0.24219,-0.32031 0.39062,-0.40625 0.15625,-0.09375 0.34375,-0.14062 0.5625,-0.14062 0.03125,0 0.0625,0.00781 0.09375,0.015625 0.039062,0 0.09375,0.00781 0.15625,0.015625 z"
         id="path5" />
    </symbol>
    <symbol
       id="c"
       overflow="visible">
      <path
         d="m 3.2969,-1.4375 v 0.26562 H 1.1563 c 0.019531,0.21094 0.097656,0.37109 0.23438,0.48438 0.13281,0.10547 0.32031,0.15625 0.5625,0.15625 0.1875,0 0.37891,-0.023438 0.57812,-0.078125 0.20703,-0.0625 0.41406,-0.14844 0.625,-0.26562 v 0.70312 c -0.21094,0.085938 -0.42188,0.14844 -0.64062,0.1875 -0.21874,0.03906 -0.4375,0.0625 -0.65625,0.0625 -0.51172,0 -0.91406,-0.12891 -1.2031,-0.39062 -0.29297,-0.26953 -0.4375,-0.64062 -0.4375,-1.1094 0,-0.46878 0.14062,-0.83594 0.42188,-1.1094 0.28906,-0.26953 0.67969,-0.40625 1.1719,-0.40625 0.44531,0 0.80469,0.13672 1.0781,0.40625 0.26953,0.27344 0.40625,0.63672 0.40625,1.0938 z M 2.3594,-1.75 c 0,-0.16406 -0.054687,-0.30078 -0.15625,-0.40625 -0.10547,-0.11328 -0.23438,-0.17188 -0.39062,-0.17188 -0.17969,0 -0.32422,0.054687 -0.4375,0.15625 C 1.25784,-2.07813 1.19144,-1.9375 1.17191,-1.75 Z"
         id="path8" />
    </symbol>
    <symbol
       id="b"
       overflow="visible">
      <path
         d="m 1.7188,-1.2812 c -0.1875,0 -0.33594,0.03125 -0.4375,0.09375 -0.09375,0.0625 -0.14062,0.15625 -0.14062,0.28125 0,0.11719 0.035156,0.21094 0.10938,0.28125 0.082031,0.0625 0.19531,0.09375 0.34375,0.09375 0.16406,0 0.30469,-0.0625 0.42188,-0.1875 0.125,-0.125 0.1875,-0.28125 0.1875,-0.46875 V -1.2812 Z M 3.125,-1.64058 V 2e-5 H 2.20312 v -0.42188 c -0.125,0.17969 -0.26562,0.30859 -0.42188,0.39062 -0.15625,0.070312 -0.34375,0.10938 -0.5625,0.10938 -0.29297,0 -0.53125,-0.082031 -0.71875,-0.25 -0.1875,-0.17578 -0.28125,-0.40625 -0.28125,-0.6875 0,-0.33203 0.11328,-0.57812 0.34375,-0.73438 0.23828,-0.15625 0.60156,-0.23438 1.0938,-0.23438 h 0.54688 v -0.078125 c 0,-0.14453 -0.058594,-0.25 -0.17188,-0.3125 -0.11719,-0.070312 -0.29297,-0.10938 -0.53125,-0.10938 -0.19922,0 -0.38672,0.023437 -0.5625,0.0625 -0.16797,0.042969 -0.32422,0.10156 -0.46875,0.17188 v -0.6875 C 0.6641,-2.832026 0.86332,-2.867183 1.06254,-2.890625 1.25785,-2.921875 1.45707,-2.9375 1.65629,-2.9375 c 0.51953,0 0.89453,0.10547 1.125,0.3125 0.22656,0.19922 0.34375,0.52734 0.34375,0.98438 z"
         id="path11" />
    </symbol>
    <symbol
       id="a"
       overflow="visible">
      <path
         d="m 1.4375,-3.6719 v 0.8125 H 2.375 v 0.65625 H 1.4375 v 1.2031 c 0,0.13672 0.023438,0.23047 0.078125,0.28125 0.050781,0.042969 0.15625,0.0625 0.3125,0.0625 h 0.46875 V -5e-5 h -0.78125 c -0.36719,0 -0.62109,-0.070312 -0.76562,-0.21875 -0.14844,-0.15625 -0.21875,-0.41406 -0.21875,-0.78125 v -1.2031 H 0.062505 V -2.8594 h 0.46875 v -0.8125 z"
         id="path14" />
    </symbol>
    <symbol
       id="l"
       overflow="visible">
      <path
         d="M 2.3906,-2.4375 V -3.9844 H 3.31248 V 0 H 2.3906 v -0.40625 c -0.125,0.16797 -0.26562,0.29297 -0.42188,0.375 C 1.82028,0.039062 1.6445,0.07813 1.43747,0.07813 1.09372,0.07813 0.80466,-0.06249 0.57809,-0.34375 0.34762,-0.625 0.23434,-0.98437 0.23434,-1.42185 c 0,-0.44531 0.11328,-0.8125 0.34375,-1.0938 0.22656,-0.28125 0.51562,-0.42188 0.85938,-0.42188 0.19531,0 0.375,0.042969 0.53125,0.125 0.15625,0.085938 0.29688,0.21094 0.42188,0.375 z m -0.60938,1.8438 c 0.19531,0 0.34766,-0.066406 0.45312,-0.20312 0.10156,-0.14453 0.15625,-0.35156 0.15625,-0.625 0,-0.28125 -0.054687,-0.48828 -0.15625,-0.625 -0.10547,-0.14453 -0.25781,-0.21875 -0.45312,-0.21875 -0.1875,0 -0.33594,0.074219 -0.4375,0.21875 -0.10547,0.13672 -0.15625,0.34375 -0.15625,0.625 0,0.27344 0.050781,0.48047 0.15625,0.625 0.10156,0.13672 0.25,0.20312 0.4375,0.20312 z"
         id="path17" />
    </symbol>
    <symbol
       id="g"
       overflow="visible">
      <path
         d="m 1.9688,-0.59375 c 0.1875,0 0.33203,-0.066406 0.4375,-0.20312 0.10156,-0.14453 0.15625,-0.35156 0.15625,-0.625 0,-0.28125 -0.054688,-0.48828 -0.15625,-0.625 -0.10547,-0.14453 -0.25,-0.21875 -0.4375,-0.21875 -0.19922,0 -0.35156,0.074219 -0.45312,0.21875 -0.10547,0.14844 -0.15625,0.35547 -0.15625,0.625 0,0.27344 0.050781,0.48047 0.15625,0.625 0.10156,0.13672 0.25391,0.20312 0.45312,0.20312 z m -0.60938,-1.8438 c 0.125,-0.16406 0.25781,-0.28906 0.40625,-0.375 0.15625,-0.082031 0.33203,-0.125 0.53125,-0.125 0.35156,0 0.64453,0.14062 0.875,0.42188 0.22656,0.28125 0.34375,0.64844 0.34375,1.0938 0,0.4375 -0.11719,0.79688 -0.34375,1.0781 -0.23047,0.28125 -0.52344,0.42188 -0.875,0.42188 -0.19922,0 -0.375,-0.039062 -0.53125,-0.10938 C 1.61723,-0.113301 1.48442,-0.2383 1.35942,-0.40627 V -2e-5 H 0.43754 v -3.9844 h 0.92188 z"
         id="path20" />
    </symbol>
    <symbol
       id="f"
       overflow="visible">
      <path
         d="M 0.0625,-2.8594 H 0.98438 L 1.75,-0.9219 2.40625,-2.8594 H 3.3125 L 2.1094,0.2656 C 1.99221,0.58591 1.85159,0.81248 1.68752,0.93748 1.53127,1.06248 1.31643,1.12498 1.0469,1.12498 H 0.53128 V 0.53123 h 0.28125 c 0.15625,0 0.26562,-0.027344 0.32812,-0.078125 0.070313,-0.054687 0.12891,-0.14062 0.17188,-0.26562 L 1.34378,0.10936 Z"
         id="path23" />
    </symbol>
    <symbol
       id="k"
       overflow="visible">
      <path
         d="m 3.9062,-0.28125 c -0.24219,0.11719 -0.49609,0.20312 -0.76562,0.26562 -0.26172,0.0625 -0.53125,0.09375 -0.8125,0.09375 -0.63672,0 -1.1406,-0.17578 -1.5156,-0.53125 -0.36719,-0.35156 -0.54688,-0.83594 -0.54688,-1.4531 0,-0.61328 0.1875,-1.0977 0.5625,-1.4531 0.375,-0.35156 0.89062,-0.53125 1.5469,-0.53125 0.25781,0 0.50391,0.027344 0.73438,0.078125 0.22656,0.054688 0.44531,0.125 0.65625,0.21875 v 0.78125 c -0.21094,-0.125 -0.42188,-0.21094 -0.64062,-0.26562 -0.21094,-0.0625 -0.41797,-0.09375 -0.625,-0.09375 -0.38672,0 -0.6875,0.10938 -0.90625,0.32812 -0.21094,0.21875 -0.3125,0.53125 -0.3125,0.9375 0,0.40625 0.097656,0.71875 0.29688,0.9375 0.20703,0.21875 0.5,0.32812 0.875,0.32812 0.10156,0 0.19531,-0.003906 0.28125,-0.015625 0.09375,-0.007812 0.17578,-0.03125 0.25,-0.0625 V -1.45309 H 2.37501 v -0.67188 h 1.5312 z"
         id="path26" />
    </symbol>
    <symbol
       id="j"
       overflow="visible">
      <path
         d="M 3.3125,-1.75 V 0 H 2.39062 v -1.3281 c 0,-0.25 -0.00781,-0.42188 -0.015625,-0.51562 C 2.363276,-1.93747 2.347651,-2.00388 2.32812,-2.04684 2.285151,-2.10934 2.23437,-2.15622 2.17187,-2.18746 2.10937,-2.2187 2.03906,-2.234335 1.96875,-2.234335 c -0.1875,0 -0.33984,0.074219 -0.45312,0.21875 -0.10547,0.14844 -0.15625,0.35156 -0.15625,0.60938 V -5e-6 H 0.4375 v -3.9844 h 0.92188 v 1.5469 c 0.13281,-0.16406 0.28125,-0.28906 0.4375,-0.375 0.15625,-0.082031 0.32812,-0.125 0.51562,-0.125 0.32031,0 0.56641,0.10547 0.73438,0.3125 0.17578,0.19922 0.26562,0.49219 0.26562,0.875 z"
         id="path29" />
    </symbol>
    <symbol
       id="u"
       overflow="visible">
      <path
         d="M 0.4375,-2.8594 H 1.35938 V 0 H 0.4375 Z m 0,-1.125 h 0.92188 v 0.75 H 0.4375 Z"
         id="path32" />
    </symbol>
    <symbol
       id="t"
       overflow="visible">
      <path
         d="m 2.6719,-2.7656 v 0.6875 C 2.47268,-2.160131 2.28128,-2.22263 2.09378,-2.2656 c -0.17969,-0.039063 -0.34375,-0.0625 -0.5,-0.0625 -0.17969,0 -0.30859,0.027344 -0.39062,0.078125 -0.085937,0.042969 -0.125,0.10547 -0.125,0.1875 0,0.074219 0.03125,0.13281 0.09375,0.17188 0.0625,0.042969 0.17578,0.074219 0.34375,0.09375 l 0.15625,0.015625 c 0.46875,0.0625 0.78516,0.16406 0.95312,0.29688 0.16406,0.13672 0.25,0.35156 0.25,0.64062 0,0.30469 -0.11719,0.53125 -0.34375,0.6875 C 2.30081,3e-5 1.96097,0.07816 1.51568,0.07816 1.32818,0.07816 1.13287,0.062535 0.93756,0.031285 0.73834,3.5e-5 0.53131,-0.04684 0.31256,-0.109335 v -0.6875 c 0.1875,0.085937 0.375,0.15234 0.5625,0.20312 0.1875,0.042969 0.37891,0.0625 0.57812,0.0625 0.1875,0 0.32031,-0.023438 0.40625,-0.078125 0.09375,-0.050781 0.14062,-0.125 0.14062,-0.21875 0,-0.082031 -0.03125,-0.14453 -0.09375,-0.1875 C 1.8438,-1.054653 1.7188,-1.085903 1.5313,-1.10934 L 1.37505,-1.124965 c -0.40625,-0.050781 -0.69531,-0.14453 -0.85938,-0.28125 -0.16797,-0.13281 -0.25,-0.34375 -0.25,-0.625 0,-0.30078 0.10156,-0.52344 0.3125,-0.67188 0.20703,-0.15625 0.52344,-0.23438 0.95312,-0.23438 0.17578,0 0.35156,0.015625 0.53125,0.046875 0.1875,0.023437 0.39062,0.0625 0.60938,0.125 z"
         id="path35" />
    </symbol>
    <symbol
       id="s"
       overflow="visible">
      <path
         d="m 0.48438,-3.8125 h 1.25 l 0.875,2.0312 0.85938,-2.0312 h 1.25 V 0 H 3.79688 v -2.7969 l -0.875,2.0625 h -0.625 L 1.40626,-2.7969 V 0 H 0.48438 Z"
         id="path38" />
    </symbol>
    <symbol
       id="i"
       overflow="visible">
      <path
         d="m 0.40625,-1.1094 v -1.75 h 0.92188 v 0.28125 0.59375 0.46875 c 0,0.23047 0.00391,0.39844 0.015625,0.5 0.00781,0.09375 0.03125,0.16406 0.0625,0.20312 0.03125,0.0625 0.078125,0.10938 0.14062,0.14062 0.062495,0.03124 0.13281,0.046875 0.21875,0.046875 0.1875,0 0.33203,-0.070312 0.4375,-0.21875 0.11328,-0.14453 0.17188,-0.34766 0.17188,-0.60938 v -1.4062 h 0.90625 v 2.8594 h -0.90625 v -0.40625 c -0.13672,0.16797 -0.28125,0.29297 -0.4375,0.375 -0.15625,0.070312 -0.32812,0.10938 -0.51562,0.10938 -0.33594,0 -0.58984,-0.097656 -0.76562,-0.29688 -0.16797,-0.20703 -0.25,-0.50391 -0.25,-0.89062 z"
         id="path41" />
    </symbol>
    <symbol
       id="h"
       overflow="visible">
      <path
         d="m 0.4375,-2.8594 h 0.92188 v 2.8125 c 0,0.38281 -0.09375,0.67578 -0.28125,0.875 C 0.89063,1.02341 0.62501,1.12498 0.28125,1.12498 H -0.17187 V 0.53123 h 0.15625 c 0.17578,0 0.29688,-0.042969 0.35938,-0.125 0.0625,-0.074219 0.09375,-0.22656 0.09375,-0.45312 z m 0,-1.125 h 0.92188 v 0.75 H 0.4375 Z"
         id="path44" />
    </symbol>
    <symbol
       id="r"
       overflow="visible">
      <path
         d="m 2.3281,-3.9844 v 0.60938 H 1.81248 c -0.125,0 -0.21484,0.027344 -0.26562,0.078125 -0.054687,0.042969 -0.078125,0.12109 -0.078125,0.23438 v 0.20312 h 0.78125 v 0.65625 h -0.78125 v 2.2031 h -0.92188 v -2.2031 h -0.45312 v -0.65625 h 0.45312 v -0.20312 c 0,-0.3125 0.085937,-0.53906 0.26562,-0.6875 0.17578,-0.15625 0.44531,-0.23438 0.8125,-0.23438 z"
         id="path47" />
    </symbol>
    <symbol
       id="e"
       overflow="visible">
      <path
         d="m 1.7969,-2.2812 c -0.19922,0 -0.35547,0.074219 -0.46875,0.21875 -0.10547,0.14844 -0.15625,0.35938 -0.15625,0.64062 0,0.27344 0.050781,0.48047 0.15625,0.625 0.11328,0.14844 0.26953,0.21875 0.46875,0.21875 0.19531,0 0.34766,-0.070313 0.45312,-0.21875 0.11328,-0.14453 0.17188,-0.35156 0.17188,-0.625 0,-0.28125 -0.058594,-0.49219 -0.17188,-0.64062 C 2.14455,-2.20698 1.99221,-2.2812 1.7969,-2.2812 Z m 0,-0.65625 c 0.5,0 0.88281,0.13672 1.1562,0.40625 0.28125,0.26172 0.42188,0.63281 0.42188,1.1094 0,0.46875 -0.14062,0.83984 -0.42188,1.1094 -0.27344,0.26172 -0.65625,0.39062 -1.1562,0.39062 -0.49219,0 -0.875,-0.12891 -1.1562,-0.39062 -0.28125,-0.26953 -0.42188,-0.64062 -0.42188,-1.1094 0,-0.47656 0.14062,-0.84766 0.42188,-1.1094 0.28125,-0.26953 0.66406,-0.40625 1.1562,-0.40625 z"
         id="path50" />
    </symbol>
    <symbol
       id="q"
       overflow="visible">
      <path
         d="m 3.0938,-2.3906 c 0.11328,-0.17578 0.25,-0.3125 0.40625,-0.40625 0.16406,-0.09375 0.34375,-0.14062 0.53125,-0.14062 0.33203,0 0.58203,0.10547 0.75,0.3125 0.17578,0.19922 0.26562,0.49219 0.26562,0.875 V 3e-5 H 4.12504 v -1.5 -0.0625 -0.09375 c 0,-0.20703 -0.03125,-0.35156 -0.09375,-0.4375 -0.054688,-0.09375 -0.14844,-0.14062 -0.28125,-0.14062 -0.17969,0 -0.3125,0.074219 -0.40625,0.21875 -0.09375,0.13672 -0.14062,0.33984 -0.14062,0.60938 V -1e-5 H 2.28129 v -1.5 c 0,-0.3125 -0.03125,-0.50781 -0.09375,-0.59375 -0.054688,-0.09375 -0.14844,-0.14062 -0.28125,-0.14062 -0.17969,0 -0.3125,0.074219 -0.40625,0.21875 -0.09375,0.13672 -0.14062,0.33984 -0.14062,0.60938 V -5e-5 H 0.43754 v -2.8594 h 0.92188 v 0.42188 c 0.10156,-0.16406 0.22656,-0.28906 0.375,-0.375 0.14453,-0.082031 0.30469,-0.125 0.48438,-0.125 0.19531,0 0.36719,0.054688 0.51562,0.15625 0.15625,0.09375 0.27344,0.22656 0.35938,0.39062 z"
         id="path53" />
    </symbol>
    <symbol
       id="p"
       overflow="visible">
      <path
         d="m 0.48438,-3.8125 h 1.0938 l 1.3906,2.6094 v -2.6094 h 0.9375 V 0 H 2.79688 L 1.40628,-2.625 V 0 H 0.4844 Z"
         id="path56" />
    </symbol>
    <symbol
       id="o"
       overflow="visible">
      <path
         d="M 3.3125,-1.75 V 0 H 2.39062 v -1.3281 c 0,-0.25 -0.00781,-0.42188 -0.015625,-0.51562 C 2.363276,-1.93747 2.347651,-2.00388 2.32812,-2.04684 2.285151,-2.10934 2.23437,-2.15622 2.17187,-2.18746 2.10937,-2.2187 2.03906,-2.234335 1.96875,-2.234335 c -0.1875,0 -0.33984,0.074219 -0.45312,0.21875 -0.10547,0.14844 -0.15625,0.35156 -0.15625,0.60938 V -5e-6 H 0.4375 v -2.8594 h 0.92188 v 0.42188 c 0.13281,-0.16406 0.28125,-0.28906 0.4375,-0.375 0.15625,-0.082031 0.32812,-0.125 0.51562,-0.125 0.32031,0 0.56641,0.10547 0.73438,0.3125 0.17578,0.19922 0.26562,0.49219 0.26562,0.875 z"
         id="path59" />
    </symbol>
    <symbol
       id="n"
       overflow="visible">
      <path
         d="m 0.48438,-3.8125 h 1.625 c 0.48828,0 0.86328,0.10938 1.125,0.32812 0.25781,0.21094 0.39062,0.51172 0.39062,0.90625 0,0.40625 -0.13281,0.71875 -0.39062,0.9375 -0.26172,0.21094 -0.63672,0.3125 -1.125,0.3125 H 1.46876 V -3e-5 H 0.48438 Z m 0.98438,0.70312 v 1.0781 h 0.54688 c 0.1875,0 0.33203,-0.046875 0.4375,-0.14062 0.10156,-0.09375 0.15625,-0.22656 0.15625,-0.40625 0,-0.16406 -0.054687,-0.29688 -0.15625,-0.39062 -0.10547,-0.09375 -0.25,-0.14062 -0.4375,-0.14062 z"
         id="path62" />
    </symbol>
    <symbol
       id="m"
       overflow="visible">
      <path
         d="m 2.75,-2.7656 v 0.73438 C 2.625,-2.113251 2.5,-2.17575 2.375,-2.21872 2.25,-2.257782 2.11719,-2.28122 1.98438,-2.28122 c -0.25,0 -0.44922,0.078125 -0.59375,0.23438 -0.14844,0.14844 -0.21875,0.35547 -0.21875,0.625 0,0.26172 0.070313,0.46875 0.21875,0.625 0.14453,0.14844 0.34375,0.21875 0.59375,0.21875 0.14453,0 0.28125,-0.019531 0.40625,-0.0625 0.13281,-0.039063 0.25391,-0.10156 0.35938,-0.1875 v 0.75 C 2.60157,-0.023402 2.45704,0.007848 2.31251,0.03129 2.16407,0.06254 2.01954,0.078165 1.87501,0.078165 c -0.52344,0 -0.92969,-0.12891 -1.2188,-0.39062 -0.29297,-0.26953 -0.4375,-0.64062 -0.4375,-1.1094 0,-0.47656 0.14453,-0.84766 0.4375,-1.1094 0.28906,-0.26953 0.69531,-0.40625 1.2188,-0.40625 0.14453,0 0.28906,0.015625 0.4375,0.046875 0.14453,0.023437 0.28906,0.0625 0.4375,0.125 z"
         id="path65" />
    </symbol>
  </defs>
  <g
     id="g154"
     transform="translate(-325.78024,-287.28345)">
    <path
       d="m 352.10499,313.60834 21.24856,-21.1759 c 1.16028,-1.23267 1.16028,-3.11829 0,-4.27878 -1.16028,-1.16028 -3.11829,-1.16028 -4.27878,0 L 350.002,307.22643 330.92923,288.15366 c -1.23267,-1.16028 -3.11829,-1.16028 -4.27878,0 -1.16028,1.16028 -1.16028,3.04583 0,4.27878 l 21.1759,21.1759 c 1.23267,1.16028 3.11829,1.16028 4.27878,0 z"
       fill-rule="evenodd"
       id="path70"
       style="stroke-width:0.0692045;fill:#ffffff" />
  </g>
</svg>
