<?xml version="1.0" encoding="UTF-8" standalone="no"?>
<svg
   version="1.1"
   x="0px"
   y="0px"
   viewBox="0 0 400 50"
   id="svg36"
   sodipodi:docname="logo.svg"
   inkscape:version="1.2.2 (1:1.2.2+202212051550+b0a8486541)"
   xmlns:inkscape="http://www.inkscape.org/namespaces/inkscape"
   xmlns:sodipodi="http://sodipodi.sourceforge.net/DTD/sodipodi-0.dtd"
   xmlns="http://www.w3.org/2000/svg"
   xmlns:svg="http://www.w3.org/2000/svg">
  <defs
     id="defs40" />
  <sodipodi:namedview
     id="namedview38"
     pagecolor="#ffffff"
     bordercolor="#666666"
     borderopacity="1.0"
     inkscape:showpageshadow="2"
     inkscape:pageopacity="0.0"
     inkscape:pagecheckerboard="0"
     inkscape:deskcolor="#d1d1d1"
     showgrid="false"
     inkscape:zoom="3.385"
     inkscape:cx="200.14771"
     inkscape:cy="25.110783"
     inkscape:window-width="2560"
     inkscape:window-height="1369"
     inkscape:window-x="0"
     inkscape:window-y="34"
     inkscape:window-maximized="1"
     inkscape:current-layer="svg36" />
  <title
     id="title2">SpaceX Logo</title>
  <g
     class="letter_s"
     id="g6"
     style="fill:#ffffff">
    <path
       class="fill-white"
       d="M37.5,30.5H10.9v-6.6h34.3c-0.9-2.8-3.8-5.4-8.9-5.4H11.4c-5.7,0-9,2.1-9,6.7v4.9c0,4,3.4,6.3,8.4,6.3h26.9v7H1.5           c0.9,3.8,3.8,5.8,9,5.8h27.1c5.7,0,8.5-2.2,8.5-6.9v-4.9C46.1,33.1,42.8,30.8,37.5,30.5z"
       id="path4"
       style="fill:#ffffff" />
  </g>
  <g
     class="letter_p"
     id="g10"
     style="fill:#ffffff">
    <path
       class="fill-white"
       d="M91.8,18.6H59v30.7h9.3V37.5h24.2c6.7,0,10.4-2.3,10.4-7.7v-3.4C102.8,21.4,98.6,18.6,91.8,18.6z M94.8,28.4           c0,2.2-0.4,3.4-4,3.4H68.3l0.1-8h22c4,0,4.5,1.2,4.5,3.3V28.4z"
       id="path8"
       style="fill:#ffffff" />
  </g>
  <g
     class="letter_a"
     id="g14"
     style="fill:#ffffff">
    <polygon
       class="fill-white"
       points="129.9,17.3 124.3,24.2 133.8,37.3 114,37.3 109.1,42.5 137.7,42.5 142.6,49.3 153.6,49.3  "
       id="polygon12"
       style="fill:#ffffff" />
  </g>
  <g
     class="letter_c"
     id="g18"
     style="fill:#ffffff">
    <path
       class="fill-white"
       d="M171.4,23.9h34.8c-0.9-3.6-4.4-5.4-9.4-5.4h-26c-4.5,0-8.8,1.8-8.8,6.7v17.2c0,4.9,4.3,6.7,8.8,6.7h26.3           c6,0,8.1-1.7,9.1-5.8h-34.8V23.9z"
       id="path16"
       style="fill:#ffffff" />
  </g>
  <g
     class="letter_e"
     id="g24"
     style="fill:#ffffff">
    <polygon
       class="fill-white"
       points="228.3,43.5 228.3,34.1 247,34.1 247,28.9 218.9,28.9 218.9,49.3 260.4,49.3 260.4,43.5  "
       id="polygon20"
       style="fill:#ffffff" />
    <rect
       class="fill-white"
       x="219.9"
       y="18.6"
       width="41.9"
       height="5.4"
       id="rect22"
       style="fill:#ffffff" />
  </g>
  <g
     class="letter_x"
     id="g30"
     style="fill:#ffffff">
    <path
       class="fill-white"
       d="M287.6,18.6H273l17.2,12.6c2.5-1.7,5.4-3.5,8-5L287.6,18.6z"
       id="path26"
       style="fill:#ffffff" />
    <path
       class="fill-white"
       d="M308.8,34.3c-2.5,1.7-5,3.6-7.4,5.4l13,9.5h14.7L308.8,34.3z"
       id="path28"
       style="fill:#ffffff" />
  </g>
  <g
     class="letter_swoosh"
     id="g34"
     style="fill:#ffffff">
    <path
       class="fill-white"
       d="M399,0.7c-80,4.6-117,38.8-125.3,46.9l-1.7,1.6h14.8C326.8,9.1,384.3,2,399,0.7L399,0.7z"
       id="path32"
       style="fill:#ffffff" />
  </g>
</svg>
